<mxfile host="app.diagrams.net" modified="2024-03-29T14:51:04.874Z" agent="Mozilla/5.0 (Windows NT 10.0; Win64; x64) AppleWebKit/537.36 (KHTML, like Gecko) Chrome/122.0.0.0 Safari/537.36" etag="4AHFhy45zwrShI4RQYrN" version="24.2.1" type="device">
  <diagram name="Page-1" id="kC470Q43Y9AA4miw6_cI">
    <mxGraphModel dx="1434" dy="1846" grid="1" gridSize="10" guides="1" tooltips="1" connect="1" arrows="1" fold="1" page="1" pageScale="1" pageWidth="850" pageHeight="1100" math="0" shadow="0">
      <root>
        <mxCell id="0" />
        <mxCell id="1" parent="0" />
        <mxCell id="EBuo0Wo30vteWpWxwwae-1" value="" style="sketch=0;outlineConnect=0;fontColor=#232F3E;gradientColor=none;fillColor=#232F3D;strokeColor=none;dashed=0;verticalLabelPosition=bottom;verticalAlign=top;align=center;html=1;fontSize=12;fontStyle=0;aspect=fixed;pointerEvents=1;shape=mxgraph.aws4.traditional_server;" vertex="1" parent="1">
          <mxGeometry x="161.35" y="-924" width="77.31" height="134" as="geometry" />
        </mxCell>
        <mxCell id="EBuo0Wo30vteWpWxwwae-2" value="" style="sketch=0;outlineConnect=0;fontColor=#232F3E;gradientColor=none;fillColor=#232F3D;strokeColor=none;dashed=0;verticalLabelPosition=bottom;verticalAlign=top;align=center;html=1;fontSize=12;fontStyle=0;aspect=fixed;pointerEvents=1;shape=mxgraph.aws4.traditional_server;" vertex="1" parent="1">
          <mxGeometry x="162.5" y="-630" width="75" height="130" as="geometry" />
        </mxCell>
        <mxCell id="EBuo0Wo30vteWpWxwwae-3" value="" style="verticalLabelPosition=bottom;html=1;verticalAlign=top;align=center;strokeColor=none;fillColor=#00BEF2;shape=mxgraph.azure.computer;pointerEvents=1;" vertex="1" parent="1">
          <mxGeometry x="470" y="-570" width="80" height="70" as="geometry" />
        </mxCell>
        <mxCell id="EBuo0Wo30vteWpWxwwae-4" value="" style="verticalLabelPosition=bottom;html=1;verticalAlign=top;align=center;strokeColor=#b85450;fillColor=#f8cecc;shape=mxgraph.azure.computer;pointerEvents=1;" vertex="1" parent="1">
          <mxGeometry x="600" y="-810" width="82.5" height="73.5" as="geometry" />
        </mxCell>
        <mxCell id="EBuo0Wo30vteWpWxwwae-18" style="edgeStyle=orthogonalEdgeStyle;rounded=0;orthogonalLoop=1;jettySize=auto;html=1;" edge="1" parent="1" source="EBuo0Wo30vteWpWxwwae-5" target="EBuo0Wo30vteWpWxwwae-6">
          <mxGeometry relative="1" as="geometry" />
        </mxCell>
        <mxCell id="EBuo0Wo30vteWpWxwwae-5" value="" style="sketch=0;points=[[0.015,0.015,0],[0.985,0.015,0],[0.985,0.985,0],[0.015,0.985,0],[0.25,0,0],[0.5,0,0],[0.75,0,0],[1,0.25,0],[1,0.5,0],[1,0.75,0],[0.75,1,0],[0.5,1,0],[0.25,1,0],[0,0.75,0],[0,0.5,0],[0,0.25,0]];verticalLabelPosition=bottom;html=1;verticalAlign=top;aspect=fixed;align=center;pointerEvents=1;shape=mxgraph.cisco19.rect;prIcon=l2_switch;fillColor=#FAFAFA;strokeColor=#005073;" vertex="1" parent="1">
          <mxGeometry x="354.5" y="-720" width="76" height="76" as="geometry" />
        </mxCell>
        <mxCell id="EBuo0Wo30vteWpWxwwae-19" style="edgeStyle=orthogonalEdgeStyle;rounded=0;orthogonalLoop=1;jettySize=auto;html=1;" edge="1" parent="1" source="EBuo0Wo30vteWpWxwwae-6" target="EBuo0Wo30vteWpWxwwae-7">
          <mxGeometry relative="1" as="geometry" />
        </mxCell>
        <mxCell id="EBuo0Wo30vteWpWxwwae-6" value="" style="sketch=0;points=[[0.5,0,0],[1,0.5,0],[0.5,1,0],[0,0.5,0],[0.145,0.145,0],[0.8555,0.145,0],[0.855,0.8555,0],[0.145,0.855,0]];verticalLabelPosition=bottom;html=1;verticalAlign=top;aspect=fixed;align=center;pointerEvents=1;shape=mxgraph.cisco19.rect;prIcon=router;fillColor=#FAFAFA;strokeColor=#005073;" vertex="1" parent="1">
          <mxGeometry x="357.5" y="-910" width="70" height="70" as="geometry" />
        </mxCell>
        <mxCell id="EBuo0Wo30vteWpWxwwae-7" value="&lt;font style=&quot;font-size: 17px;&quot;&gt;Internet&lt;/font&gt;" style="ellipse;shape=cloud;whiteSpace=wrap;html=1;" vertex="1" parent="1">
          <mxGeometry x="283.75" y="-1090" width="217.5" height="150" as="geometry" />
        </mxCell>
        <mxCell id="EBuo0Wo30vteWpWxwwae-10" style="edgeStyle=orthogonalEdgeStyle;rounded=0;orthogonalLoop=1;jettySize=auto;html=1;entryX=1;entryY=0.5;entryDx=0;entryDy=0;entryPerimeter=0;" edge="1" parent="1" source="EBuo0Wo30vteWpWxwwae-4" target="EBuo0Wo30vteWpWxwwae-5">
          <mxGeometry relative="1" as="geometry" />
        </mxCell>
        <mxCell id="EBuo0Wo30vteWpWxwwae-15" style="edgeStyle=orthogonalEdgeStyle;rounded=0;orthogonalLoop=1;jettySize=auto;html=1;entryX=0;entryY=0.5;entryDx=0;entryDy=0;entryPerimeter=0;" edge="1" parent="1" source="EBuo0Wo30vteWpWxwwae-1" target="EBuo0Wo30vteWpWxwwae-5">
          <mxGeometry relative="1" as="geometry" />
        </mxCell>
        <mxCell id="EBuo0Wo30vteWpWxwwae-17" style="edgeStyle=orthogonalEdgeStyle;rounded=0;orthogonalLoop=1;jettySize=auto;html=1;entryX=0;entryY=0.5;entryDx=0;entryDy=0;entryPerimeter=0;" edge="1" parent="1" source="EBuo0Wo30vteWpWxwwae-2" target="EBuo0Wo30vteWpWxwwae-5">
          <mxGeometry relative="1" as="geometry" />
        </mxCell>
        <mxCell id="EBuo0Wo30vteWpWxwwae-20" style="edgeStyle=orthogonalEdgeStyle;rounded=0;orthogonalLoop=1;jettySize=auto;html=1;entryX=0.5;entryY=1;entryDx=0;entryDy=0;entryPerimeter=0;" edge="1" parent="1" source="EBuo0Wo30vteWpWxwwae-3" target="EBuo0Wo30vteWpWxwwae-5">
          <mxGeometry relative="1" as="geometry" />
        </mxCell>
        <mxCell id="EBuo0Wo30vteWpWxwwae-21" value="&lt;font style=&quot;font-size: 17px;&quot;&gt;Splunk Server&lt;/font&gt;&lt;div style=&quot;font-size: 17px;&quot;&gt;&lt;font style=&quot;font-size: 17px;&quot;&gt;Ubuntu Server&lt;br&gt;&lt;/font&gt;&lt;div style=&quot;&quot;&gt;&lt;font style=&quot;font-size: 17px;&quot;&gt;IP: 192.168.10.10&lt;/font&gt;&lt;/div&gt;&lt;/div&gt;" style="text;html=1;align=center;verticalAlign=middle;resizable=0;points=[];autosize=1;strokeColor=none;fillColor=none;" vertex="1" parent="1">
          <mxGeometry x="120" y="-790" width="160" height="70" as="geometry" />
        </mxCell>
        <mxCell id="EBuo0Wo30vteWpWxwwae-22" value="&lt;font style=&quot;font-size: 17px;&quot;&gt;Active Directory&lt;/font&gt;&lt;div style=&quot;font-size: 17px;&quot;&gt;&lt;font style=&quot;font-size: 17px;&quot;&gt;Windows Server 2022&lt;/font&gt;&lt;/div&gt;&lt;div style=&quot;font-size: 17px;&quot;&gt;&lt;div style=&quot;&quot;&gt;&lt;font style=&quot;font-size: 17px;&quot;&gt;IP:192.168.10.7&lt;/font&gt;&lt;/div&gt;&lt;div style=&quot;&quot;&gt;&lt;font style=&quot;font-size: 17px;&quot;&gt;Splunk Universal Forwarder&lt;/font&gt;&lt;/div&gt;&lt;div style=&quot;&quot;&gt;&lt;font style=&quot;font-size: 17px;&quot;&gt;Sysmon&lt;/font&gt;&lt;/div&gt;&lt;/div&gt;" style="text;html=1;align=center;verticalAlign=middle;resizable=0;points=[];autosize=1;strokeColor=none;fillColor=none;" vertex="1" parent="1">
          <mxGeometry x="81.15" y="-500" width="230" height="120" as="geometry" />
        </mxCell>
        <mxCell id="EBuo0Wo30vteWpWxwwae-23" value="&lt;div style=&quot;font-size: 17px;&quot;&gt;&lt;font style=&quot;font-size: 17px;&quot;&gt;Target PC&lt;/font&gt;&lt;/div&gt;&lt;font style=&quot;font-size: 17px;&quot;&gt;Windows 10&lt;/font&gt;&lt;div style=&quot;font-size: 17px;&quot;&gt;&lt;font style=&quot;font-size: 17px;&quot;&gt;IP:DHCP&lt;/font&gt;&lt;/div&gt;&lt;div style=&quot;font-size: 17px;&quot;&gt;&lt;font style=&quot;font-size: 17px;&quot;&gt;Splunk Universal Forwarder&lt;/font&gt;&lt;/div&gt;&lt;div style=&quot;font-size: 17px;&quot;&gt;&lt;font style=&quot;font-size: 17px;&quot;&gt;Sysmon&lt;/font&gt;&lt;/div&gt;" style="text;html=1;align=center;verticalAlign=middle;resizable=0;points=[];autosize=1;strokeColor=none;fillColor=none;" vertex="1" parent="1">
          <mxGeometry x="395" y="-500" width="230" height="120" as="geometry" />
        </mxCell>
        <mxCell id="EBuo0Wo30vteWpWxwwae-24" value="&lt;font style=&quot;font-size: 17px;&quot;&gt;Attacker PC&lt;/font&gt;&lt;div style=&quot;font-size: 17px;&quot;&gt;&lt;font style=&quot;font-size: 17px;&quot;&gt;Kali Linux&lt;br&gt;&lt;/font&gt;&lt;div style=&quot;&quot;&gt;&lt;font style=&quot;font-size: 17px;&quot;&gt;IP: 192.168.10.250&lt;/font&gt;&lt;/div&gt;&lt;div&gt;&lt;br&gt;&lt;/div&gt;&lt;/div&gt;" style="text;html=1;align=center;verticalAlign=middle;resizable=0;points=[];autosize=1;strokeColor=none;fillColor=none;" vertex="1" parent="1">
          <mxGeometry x="556.25" y="-732" width="170" height="100" as="geometry" />
        </mxCell>
        <mxCell id="EBuo0Wo30vteWpWxwwae-25" value="&lt;font style=&quot;font-size: 17px;&quot;&gt;Domain: Andy&lt;/font&gt;&lt;div style=&quot;font-size: 17px;&quot;&gt;&lt;font style=&quot;font-size: 17px;&quot;&gt;Network: 192.168.10.0/24&lt;/font&gt;&lt;/div&gt;&lt;div style=&quot;font-size: 17px;&quot;&gt;&lt;font style=&quot;font-size: 17px;&quot;&gt;Splunk Server: 192.168.10.10&lt;/font&gt;&lt;/div&gt;&lt;div style=&quot;font-size: 17px;&quot;&gt;&lt;font style=&quot;font-size: 17px;&quot;&gt;Active Directory: 192.168.10.7&lt;/font&gt;&lt;/div&gt;&lt;div style=&quot;font-size: 17px;&quot;&gt;&lt;font style=&quot;font-size: 17px;&quot;&gt;Attacker: 192.168.10.250&lt;/font&gt;&lt;/div&gt;" style="text;html=1;align=center;verticalAlign=middle;resizable=0;points=[];autosize=1;strokeColor=none;fillColor=none;" vertex="1" parent="1">
          <mxGeometry x="30" y="-1060" width="250" height="120" as="geometry" />
        </mxCell>
      </root>
    </mxGraphModel>
  </diagram>
</mxfile>
